<svg width="307" height="57" viewBox="0 0 307 57" fill="none" xmlns="http://www.w3.org/2000/svg">
<rect width="307" height="57" rx="28.5" fill="#0575E6"/>
<path d="M134.852 24.278V27.54H138.408V28.59H134.852V31.95H138.828V33H133.578V23.228H138.828V24.278H134.852ZM144.494 25.188C145.427 25.188 146.183 25.4727 146.762 26.042C147.34 26.602 147.63 27.414 147.63 28.478V33H146.37V28.66C146.37 27.8947 146.178 27.3113 145.796 26.91C145.413 26.4993 144.89 26.294 144.228 26.294C143.556 26.294 143.019 26.504 142.618 26.924C142.226 27.344 142.03 27.9553 142.03 28.758V33H140.756V25.328H142.03V26.42C142.282 26.028 142.622 25.7247 143.052 25.51C143.49 25.2953 143.971 25.188 144.494 25.188ZM151.265 26.378V30.9C151.265 31.2733 151.344 31.5393 151.503 31.698C151.661 31.8473 151.937 31.922 152.329 31.922H153.267V33H152.119C151.409 33 150.877 32.8367 150.523 32.51C150.168 32.1833 149.991 31.6467 149.991 30.9V26.378H148.997V25.328H149.991V23.396H151.265V25.328H153.267V26.378H151.265ZM156.084 26.574C156.308 26.1353 156.626 25.7947 157.036 25.552C157.456 25.3093 157.965 25.188 158.562 25.188V26.504H158.226C156.798 26.504 156.084 27.2787 156.084 28.828V33H154.81V25.328H156.084V26.574ZM159.557 29.136C159.557 28.352 159.716 27.666 160.033 27.078C160.35 26.4807 160.784 26.0187 161.335 25.692C161.895 25.3653 162.516 25.202 163.197 25.202C163.869 25.202 164.452 25.3467 164.947 25.636C165.442 25.9253 165.81 26.2893 166.053 26.728V25.328H167.341V33H166.053V31.572C165.801 32.02 165.423 32.3933 164.919 32.692C164.424 32.9813 163.846 33.126 163.183 33.126C162.502 33.126 161.886 32.958 161.335 32.622C160.784 32.286 160.35 31.8147 160.033 31.208C159.716 30.6013 159.557 29.9107 159.557 29.136ZM166.053 29.15C166.053 28.5713 165.936 28.0673 165.703 27.638C165.47 27.2087 165.152 26.882 164.751 26.658C164.359 26.4247 163.925 26.308 163.449 26.308C162.973 26.308 162.539 26.42 162.147 26.644C161.755 26.868 161.442 27.1947 161.209 27.624C160.976 28.0533 160.859 28.5573 160.859 29.136C160.859 29.724 160.976 30.2373 161.209 30.676C161.442 31.1053 161.755 31.4367 162.147 31.67C162.539 31.894 162.973 32.006 163.449 32.006C163.925 32.006 164.359 31.894 164.751 31.67C165.152 31.4367 165.47 31.1053 165.703 30.676C165.936 30.2373 166.053 29.7287 166.053 29.15ZM170.768 26.574C170.992 26.1353 171.309 25.7947 171.72 25.552C172.14 25.3093 172.649 25.188 173.246 25.188V26.504H172.91C171.482 26.504 170.768 27.2787 170.768 28.828V33H169.494V25.328H170.768V26.574Z" fill="white"/>
</svg>
